<?xml version="1.0" standalone="no"?>
<!DOCTYPE svg PUBLIC "-//W3C//DTD SVG 20010904//EN"
 "http://www.w3.org/TR/2001/REC-SVG-20010904/DTD/svg10.dtd">
<svg version="1.0" xmlns="http://www.w3.org/2000/svg"
 width="1100.000000pt" height="1280.000000pt" viewBox="0 0 1100.000000 1280.000000"
 preserveAspectRatio="xMidYMid meet">
<metadata>
Created by potrace 1.15, written by Peter Selinger 2001-2017
</metadata>
<g transform="translate(0.000000,1280.000000) scale(0.100000,-0.100000)"
fill="#000000" stroke="none">
<path d="M8518 12537 c-142 -386 -453 -1220 -765 -2060 -53 -141 -98 -255
-100 -253 -3 3 -43 430 -43 458 0 4 -339 323 -752 710 -414 386 -780 728 -813
759 l-60 57 -465 88 c-256 48 -708 133 -1005 189 -497 94 -541 101 -557 86 -9
-9 -307 -401 -663 -871 -355 -470 -650 -855 -655 -855 -6 0 -92 72 -191 159
l-182 160 -97 -104 -97 -104 111 -80 c61 -43 113 -81 115 -82 5 -4 -130 -313
-139 -319 -4 -3 -44 22 -89 54 -45 32 -93 62 -107 65 -59 15 -98 -47 -133
-209 -25 -116 -34 -99 97 -172 45 -26 82 -51 82 -57 0 -9 -136 -320 -146 -334
-1 -2 -73 45 -159 104 -123 83 -159 104 -166 93 -62 -97 -150 -262 -143 -269
5 -5 232 -140 504 -300 272 -160 500 -297 506 -303 8 -9 -12 -241 -72 -832
-71 -715 -211 -2122 -452 -4545 l-67 -674 -37 -21 c-20 -11 -132 -113 -250
-227 l-214 -206 -24 -286 -24 -286 -632 -732 c-347 -403 -631 -734 -630 -735
1 -1 61 -10 133 -19 l131 -17 384 226 c210 124 390 229 399 232 13 5 395 -98
407 -110 3 -3 -12 -101 -23 -152 -5 -19 7 -25 144 -71 l148 -50 76 48 c44 29
78 58 83 73 l9 24 280 -83 c154 -46 303 -91 332 -99 l52 -15 3 -97 3 -96 142
-48 141 -47 81 54 c56 38 81 61 81 74 0 11 7 20 15 20 8 0 191 -52 407 -116
216 -64 560 -165 763 -225 l370 -109 285 109 c1299 499 4313 1660 4317 1664 2
3 -85 313 -193 689 l-197 684 -264 104 c-209 83 -264 109 -268 125 -2 11 -40
423 -85 915 -44 492 -83 917 -87 944 -3 29 -2 47 3 43 5 -3 486 -593 1069
-1311 l1060 -1305 25 32 c14 17 55 71 92 118 l67 87 -109 93 c-100 85 -108 94
-97 114 51 90 131 215 138 215 5 0 49 -25 99 -55 l90 -55 63 126 62 125 -87
82 -87 82 56 125 c31 69 58 127 59 128 1 2 57 -29 123 -68 l121 -72 90 82 c49
45 90 84 90 85 0 2 -57 49 -127 105 -71 56 -754 653 -1520 1326 l-1392 1225
-5 52 c-3 29 -15 162 -26 297 -12 135 -30 346 -40 470 -11 124 -38 440 -60
704 l-41 478 48 82 c1168 1961 2188 3680 2186 3685 -3 9 -297 70 -304 63 -3
-4 -38 -53 -78 -109 l-72 -103 -132 66 c-73 37 -133 67 -135 69 -1 1 20 40 48
86 27 46 50 87 50 90 0 6 -215 149 -224 149 -1 0 -24 -47 -51 -105 -26 -58
-52 -105 -56 -105 -11 0 -239 107 -239 113 0 2 14 52 30 112 17 59 29 110 26
112 -3 3 -242 33 -266 33 -3 0 -49 -118 -102 -263z m240 207 c30 -4 56 -12 58
-18 2 -6 -11 -60 -30 -119 l-34 -108 31 -14 c18 -8 94 -41 170 -74 l138 -59
18 41 c10 23 31 75 47 114 16 40 32 73 35 73 4 0 43 -19 87 -43 l81 -43 -65
-109 c-35 -60 -64 -112 -64 -116 0 -9 340 -151 353 -146 6 2 40 48 76 103 l66
99 93 -3 c52 -2 102 -7 113 -10 17 -7 -150 -288 -1410 -2372 l-1430 -2364 31
-39 c51 -64 77 -141 78 -228 0 -42 -7 -98 -15 -125 -8 -27 -15 -52 -15 -56 0
-4 829 -720 1843 -1590 1013 -871 1855 -1595 1872 -1610 l30 -26 -20 -22 c-11
-12 -37 -36 -57 -52 l-38 -30 -115 91 c-63 50 -118 91 -122 91 -5 0 -45 -80
-90 -177 l-81 -178 95 -90 95 -90 -41 -88 -40 -89 -78 43 c-43 23 -92 50 -109
60 l-30 18 -89 -151 -89 -152 104 -97 104 -97 -53 -71 c-29 -39 -57 -71 -61
-71 -6 0 -3081 3838 -3112 3884 -4 6 -35 -1 -85 -21 -43 -18 -96 -37 -118 -42
-56 -15 -161 -14 -223 3 -29 7 -54 10 -56 7 -2 -3 -18 -58 -34 -121 -33 -123
-417 -1578 -662 -2510 -82 -311 -257 -977 -390 -1480 -133 -503 -253 -960
-267 -1015 -15 -55 -29 -103 -33 -107 -5 -6 -238 47 -247 56 -2 1 10 69 26
152 16 82 26 152 23 155 -7 7 -594 141 -597 137 -2 -2 -18 -70 -37 -153 -19
-82 -39 -149 -44 -149 -36 5 -294 81 -294 87 0 4 32 64 71 133 38 69 67 129
64 133 -4 3 -100 27 -213 52 l-207 46 -87 -79 -87 -79 -63 17 c-35 9 -64 18
-66 19 -2 2 2668 4672 2731 4776 7 12 -5 29 -57 79 -77 74 -117 147 -118 214
l-1 46 -2273 1393 c-1251 765 -2274 1395 -2274 1399 0 13 83 139 89 136 4 -2
78 -43 164 -92 87 -49 160 -86 163 -83 7 7 204 437 204 445 0 4 -52 40 -115
80 l-115 74 14 31 c7 18 28 67 46 109 l32 76 72 -45 c39 -26 98 -64 131 -84
l60 -39 92 183 c51 100 92 187 92 194 1 7 -50 56 -112 109 -61 53 -113 100
-113 103 -1 3 21 27 50 53 l51 46 1675 -1505 c921 -827 1820 -1635 1997 -1794
l323 -290 77 79 c62 63 90 84 135 100 74 28 176 44 257 41 l63 -2 100 269
c129 349 389 1064 568 1564 78 217 230 638 337 935 107 297 235 650 283 785
111 308 282 772 436 1183 l118 318 31 -5 c16 -3 54 -8 83 -12z m-4722 -253
c27 -6 281 -55 564 -110 283 -55 679 -132 880 -171 408 -79 402 -78 398 -92
-11 -32 -1164 -2057 -1172 -2058 -5 0 -211 63 -458 140 -246 77 -652 203 -900
281 l-453 141 -82 81 -81 82 625 858 c344 471 627 857 628 857 1 0 24 -4 51
-9z m2818 -1171 c548 -508 692 -647 678 -652 -32 -14 -2753 -650 -2758 -645
-3 2 275 471 617 1040 l622 1036 72 -67 c40 -37 386 -357 769 -712z m691
-1031 l26 -296 -259 -694 c-143 -382 -295 -788 -338 -904 -43 -115 -112 -302
-154 -415 l-76 -205 -105 -16 c-183 -29 -257 -58 -338 -134 l-47 -44 -101 97
-101 97 -77 820 c-42 451 -79 836 -83 855 l-7 36 -384 -95 -384 -94 7 -339 c3
-186 4 -338 0 -338 -6 0 -329 292 -349 315 -11 13 -3 1010 8 1021 5 5 227 58
672 159 325 74 1553 355 1940 444 66 15 121 27 122 27 1 -1 14 -135 28 -297z
m-3887 -10 c301 -94 652 -204 780 -244 129 -41 235 -75 237 -77 5 -4 -12 -909
-17 -914 -3 -3 -1551 1384 -1578 1414 -3 3 3 2 13 -1 10 -4 264 -84 565 -178z
m2196 -861 c9 -52 76 -772 72 -775 -4 -5 -219 -43 -222 -40 -2 2 -8 61 -13
132 -6 72 -20 245 -31 385 -11 140 -17 256 -13 258 19 8 189 70 195 71 4 0 10
-14 12 -31z m-274 -95 c0 -16 14 -179 30 -363 17 -184 30 -344 30 -356 0 -18
-11 -22 -102 -36 -56 -9 -104 -16 -105 -14 -3 3 -54 758 -51 761 6 5 143 32
171 34 23 1 27 -3 27 -26z m-227 -200 c4 -104 10 -274 13 -379 l7 -191 -82 -7
c-123 -11 -117 -24 -125 257 -3 127 -9 284 -12 348 l-7 115 89 21 c49 11 94
21 100 22 7 1 13 -60 17 -186z m-1764 -703 l1053 -655 -6 -275 c-4 -151 -11
-561 -16 -910 -14 -854 -28 -1734 -36 -2188 l-7 -372 -131 -228 -131 -227 -9
353 c-5 194 -7 355 -4 357 3 3 26 1 51 -4 26 -4 47 -5 47 -1 0 5 3 15 6 23 4
12 -5 17 -39 22 -24 4 -49 10 -55 14 -6 4 -12 44 -14 96 -3 76 -6 90 -20 93
-16 3 -18 -6 -18 -87 0 -50 -4 -91 -8 -91 -13 0 -305 60 -307 63 -2 4 25 410
28 413 1 1 65 -8 142 -21 84 -14 144 -19 149 -14 17 16 -6 25 -89 38 -204 30
-207 30 -201 60 3 14 8 90 12 169 6 136 5 142 -13 142 -18 0 -20 -12 -30 -160
-6 -89 -13 -163 -15 -166 -3 -2 -205 29 -449 70 -430 71 -458 74 -459 45 0
-10 11 -12 475 -85 237 -37 431 -68 432 -68 4 -3 -24 -407 -28 -411 -2 -2 -26
1 -52 7 -26 5 -54 7 -62 4 -19 -7 -19 -46 0 -46 7 0 37 -5 65 -11 l51 -11 -7
-60 c-7 -59 -6 -60 17 -56 21 3 24 9 27 56 2 28 7 52 11 52 15 0 304 -60 308
-64 2 -2 6 -183 9 -402 l6 -399 -238 -412 c-131 -227 -239 -411 -241 -409 -2
1 4 110 12 242 37 598 65 1077 62 1080 -6 6 -1520 344 -1539 344 -14 0 -18 -8
-18 -39 0 -43 -56 -1300 -66 -1484 -7 -140 -11 -145 -102 -127 -101 20 -95 14
-88 84 l7 61 -84 19 c-46 10 -90 22 -97 26 -10 6 7 216 84 1016 92 967 159
1669 391 4089 58 605 105 1110 105 1123 l0 23 38 -23 c21 -13 512 -318 1091
-678z m2380 -235 c21 -201 34 -364 30 -363 -4 2 -64 54 -133 116 -83 75 -126
120 -126 134 0 11 -7 114 -16 230 -9 115 -13 212 -10 216 7 6 209 40 215 35 2
-1 20 -167 40 -368z m-319 318 c0 -4 7 -92 16 -196 8 -104 14 -190 12 -192 -2
-1 -55 44 -118 102 -123 112 -135 132 -128 223 l3 35 100 16 c55 9 103 17 108
18 4 0 7 -2 7 -6z m-280 -66 l0 -51 -51 49 -50 50 43 5 c24 3 46 4 51 2 4 -2
7 -26 7 -55z m2385 -607 c25 -300 57 -675 70 -835 14 -159 25 -299 25 -312 0
-20 -8 -16 -79 38 -72 55 -79 64 -84 102 -3 23 -31 337 -63 699 l-57 656 69
119 c45 77 70 111 71 98 2 -11 23 -265 48 -565z m-191 -108 c18 -202 32 -368
31 -370 -4 -5 -210 -60 -214 -56 -2 2 -13 119 -23 259 l-19 255 93 154 c51 85
95 147 96 139 2 -8 18 -180 36 -381z m-264 -219 c9 -109 17 -199 16 -199 -1
-1 -19 -5 -41 -8 l-40 -7 -1 79 c-1 66 -5 86 -28 129 l-28 51 48 81 c27 44 50
78 52 76 2 -2 12 -93 22 -202z m-2333 58 l182 -113 0 -236 c1 -131 4 -377 7
-548 l7 -310 441 98 c242 54 447 98 454 98 10 0 12 -4 4 -12 -5 -7 -326 -557
-712 -1223 -386 -665 -706 -1214 -711 -1220 -6 -5 -9 -5 -9 2 0 6 9 292 20
635 11 342 29 920 40 1283 11 363 27 868 35 1123 8 255 15 486 15 514 0 50 0
50 23 36 12 -8 104 -65 204 -127z m315 -193 c48 -29 88 -56 88 -59 0 -3 -40
-12 -89 -20 l-89 -14 -6 50 c-8 66 -8 95 1 95 4 0 46 -24 95 -52z m2344 -330
c12 -117 20 -214 19 -216 -6 -8 -245 183 -246 197 0 9 -4 55 -7 104 -4 48 -7
87 -7 88 0 0 47 9 105 19 58 9 108 18 111 19 3 0 14 -95 25 -211z m-2182 140
c11 -113 46 -629 46 -673 l0 -44 -52 -10 c-29 -6 -94 -19 -144 -29 l-91 -19
-6 255 c-7 256 -9 551 -4 553 10 4 189 27 214 28 l31 1 6 -62z m221 -51 l100
-63 21 -254 c12 -140 20 -257 19 -258 -5 -5 -248 -63 -250 -60 -2 3 -45 688
-45 716 0 16 18 6 155 -81z m1660 40 c4 -18 5 -49 3 -70 l-3 -36 -53 40 c-67
51 -69 81 -7 90 22 3 43 7 47 8 4 0 10 -14 13 -32z m-1422 -187 c56 -35 66
-46 72 -77 9 -51 47 -121 89 -167 22 -24 38 -53 42 -75 l6 -37 -117 -33 c-64
-18 -118 -31 -120 -29 -2 2 -11 84 -20 183 -8 99 -18 201 -21 228 -3 26 -3 47
-1 47 3 0 35 -18 70 -40z m227 -315 c0 -8 -2 -15 -4 -15 -2 0 -6 7 -10 15 -3
8 -1 15 4 15 6 0 10 -7 10 -15z m927 -107 c20 -21 22 -44 36 -288 8 -146 13
-266 12 -268 -3 -3 -239 -41 -241 -38 -1 0 -3 124 -5 275 l-4 273 60 22 c33
12 69 27 80 34 29 16 39 15 62 -10z m-306 -44 l56 -7 7 -241 c3 -132 9 -472
12 -754 6 -463 9 -512 23 -508 9 3 232 62 496 132 264 70 484 130 489 135 4 4
-2 82 -14 174 -12 91 -20 168 -18 171 10 9 148 -181 153 -210 5 -26 175 -1585
220 -2011 8 -77 17 -154 20 -171 l5 -30 -89 -28 c-306 -93 -855 -279 -1845
-626 -395 -138 -720 -249 -723 -246 -8 8 58 206 69 206 11 0 950 289 955 294
1 1 -27 305 -62 676 -36 371 -90 937 -121 1256 l-55 582 70 263 c178 672 251
948 251 955 0 3 10 4 23 0 12 -3 47 -9 78 -12z m529 -235 c120 -152 130 -167
130 -206 0 -24 -3 -43 -7 -43 -5 0 -57 -9 -117 -20 -60 -10 -112 -17 -116 -15
-4 3 -11 89 -14 192 -4 104 -9 206 -13 228 -3 22 -3 37 1 34 3 -3 64 -79 136
-170z m354 -440 l116 -146 15 -169 c8 -93 15 -178 15 -190 0 -18 -15 -25 -111
-53 -61 -18 -114 -30 -117 -27 -8 9 -72 738 -65 749 7 11 7 11 147 -164z
m-190 -169 c15 -173 29 -341 32 -372 l6 -56 -117 -37 c-64 -20 -122 -34 -129
-32 -12 5 -63 764 -51 775 4 5 226 40 232 37 1 0 13 -142 27 -315z m-330 238
c11 -55 56 -752 49 -759 -12 -11 -283 -92 -289 -86 -6 6 -19 837 -13 838 52 9
183 27 211 28 31 1 38 -3 42 -21z m-800 -939 l8 -95 -52 -13 c-28 -7 -53 -12
-55 -9 -2 2 5 35 15 73 10 39 29 108 42 155 l22 85 7 -50 c3 -28 10 -94 13
-146z m20 -231 c3 -18 26 -244 51 -503 25 -258 49 -506 54 -550 5 -44 6 -83 2
-86 -8 -8 -231 -32 -237 -26 -3 2 -21 219 -41 481 l-37 476 28 107 c15 60 29
109 31 111 4 5 89 20 117 21 23 1 28 -4 32 -31z m-225 -803 c16 -203 27 -372
25 -374 -4 -4 -211 -41 -231 -41 -32 0 -13 109 79 459 51 195 94 348 96 340 1
-8 15 -180 31 -384z m-3009 149 c377 -91 688 -169 691 -172 3 -4 -10 -315 -30
-692 l-36 -686 -74 -127 c-40 -71 -74 -127 -75 -125 -1 2 1 111 5 243 4 132
12 447 18 700 6 253 13 487 16 521 l4 61 -122 32 c-392 101 -928 233 -932 229
-3 -2 -21 -276 -41 -609 -19 -332 -37 -614 -40 -625 -3 -15 -28 -34 -85 -64
-44 -23 -82 -40 -85 -38 -2 3 14 344 36 759 22 414 40 755 40 756 0 8 81 -10
710 -163z m-85 -183 c209 -56 416 -112 460 -123 44 -12 81 -23 83 -24 5 -3
-40 -1208 -44 -1213 -3 -4 -964 238 -972 245 -2 1 13 267 32 591 20 323 36
599 36 612 0 14 5 21 13 18 6 -2 183 -50 392 -106z m3462 -698 c17 -197 27
-360 23 -363 -15 -9 -220 -63 -224 -59 -6 7 -69 739 -64 744 5 5 173 32 213
34 19 1 22 -14 52 -356z m-303 -35 c15 -189 30 -361 33 -383 l5 -41 -126 -38
c-69 -22 -128 -37 -130 -35 -3 3 -40 576 -48 753 -1 33 2 51 11 54 18 6 171
29 201 31 l26 1 28 -342z m-304 -104 c17 -203 30 -382 30 -399 l0 -30 -145
-41 c-80 -23 -145 -39 -145 -37 0 2 25 99 55 216 30 117 81 314 113 439 31
124 58 225 60 224 1 -2 16 -169 32 -372z m2512 123 c54 -23 98 -44 98 -47 0
-3 -70 -31 -156 -64 -106 -39 -165 -56 -182 -53 -32 7 -106 37 -101 41 2 2 60
22 129 46 69 24 127 45 129 46 2 2 -6 15 -16 31 -11 15 -23 34 -28 42 -10 17
-6 16 127 -42z m325 -181 c13 -49 23 -89 21 -90 -2 -1 -93 -35 -203 -75 -110
-41 -205 -75 -211 -78 -10 -3 -72 173 -63 181 8 8 414 154 423 152 5 -1 20
-42 33 -90z m-629 12 l46 -21 -60 -22 c-32 -12 -235 -91 -451 -174 l-392 -151
-70 32 c-39 17 -71 34 -71 37 0 3 49 22 108 42 59 21 265 93 457 162 193 69
358 123 368 120 11 -3 39 -14 65 -25z m142 -92 c0 -8 30 -150 35 -167 6 -19
17 -14 -510 -208 -209 -76 -387 -142 -396 -146 -13 -5 -23 11 -50 77 -19 46
-34 87 -34 92 0 7 918 351 948 355 4 1 7 -1 7 -3z m-6432 -33 c-2 -10 -14 -20
-28 -22 -25 -3 -25 -3 -6 18 23 26 39 27 34 4z m6990 -134 c18 -67 32 -123 30
-124 -2 -2 -158 -62 -348 -135 -190 -73 -380 -145 -423 -162 -43 -16 -80 -28
-82 -26 -4 4 -73 252 -71 255 0 1 165 62 366 136 201 75 388 144 415 156 28
11 57 20 65 20 11 1 24 -33 48 -120z m-6878 83 c77 -26 82 -29 54 -35 -19 -4
-63 3 -115 18 -76 21 -82 24 -59 33 34 14 26 15 120 -16z m-81 -52 c52 -15 71
-25 71 -38 0 -9 -14 -93 -30 -187 -16 -93 -30 -174 -30 -179 0 -9 -128 -1
-138 9 -6 5 14 319 24 388 4 26 10 37 19 33 7 -2 45 -14 84 -26z m-191 -93
c-33 -29 -49 -36 -68 -32 -14 4 -28 10 -32 14 -4 3 25 34 65 69 l72 62 3 -38
c3 -33 -1 -41 -40 -75z m378 -14 c-3 -60 -9 -143 -13 -185 l-6 -77 -51 -9
c-28 -4 -52 -8 -52 -8 -3 1 36 319 41 343 3 12 17 26 32 31 57 21 57 21 49
-95z m607 -12 c78 -21 172 -46 210 -56 37 -10 66 -20 63 -22 -2 -2 -24 1 -50
8 -40 10 -53 9 -110 -11 l-63 -23 -13 -171 c-6 -94 -15 -185 -19 -202 l-6 -31
-165 47 c-91 25 -252 71 -358 100 l-193 54 60 27 c61 28 61 28 61 71 l1 43
212 102 c117 56 216 103 220 103 4 0 72 -17 150 -39z m4472 -3 c36 -18 65 -35
65 -38 0 -6 -1133 -445 -1177 -456 -14 -4 -46 9 -92 36 -39 24 -73 46 -76 50
-3 4 66 33 153 64 86 31 357 128 602 216 245 87 448 159 452 159 4 1 37 -13
73 -31z m-5428 -45 c-3 -2 -15 1 -27 7 l-22 12 24 25 23 25 3 -32 c2 -18 1
-34 -1 -37z m-171 -37 l81 -26 -30 -129 c-21 -86 -36 -132 -47 -139 -13 -8
-34 -6 -79 6 -72 19 -69 9 -46 197 8 65 15 121 15 123 0 2 6 2 13 0 6 -3 48
-17 93 -32z m588 26 c2 -4 -4 -13 -15 -20 -16 -11 -19 -9 -19 8 0 19 24 28 34
12z m6786 -150 c20 -73 30 -126 24 -131 -9 -8 -306 -127 -331 -133 -12 -3
-140 249 -131 257 2 2 91 37 198 78 130 50 197 71 201 63 3 -6 21 -66 39 -134z
m-5865 74 c6 -2 -9 -9 -32 -15 -36 -10 -55 -8 -130 11 l-88 22 39 17 c41 18
36 18 211 -35z m4264 -58 c17 -50 30 -93 28 -94 -2 -2 -120 -46 -522 -194
-132 -49 -350 -129 -484 -179 -135 -50 -245 -90 -246 -88 -1 1 -10 40 -20 87
-10 47 -19 90 -22 96 -2 5 145 64 334 134 186 68 462 169 613 226 151 56 278
102 282 103 3 0 20 -40 37 -91z m-5636 63 c24 -9 25 -13 20 -73 -4 -55 -9 -67
-36 -90 -17 -16 -34 -28 -37 -28 -3 0 -3 33 1 73 4 39 8 84 8 100 1 29 7 32
44 18z m1572 -29 c61 -17 130 -36 154 -42 l43 -11 -193 -114 c-107 -62 -195
-112 -196 -111 -2 2 11 73 29 160 19 99 35 155 42 153 6 -3 61 -18 121 -35z
m4682 -89 c18 -70 29 -130 25 -133 -4 -4 -88 -37 -187 -75 -233 -88 -671 -255
-804 -306 -57 -22 -107 -37 -111 -32 -7 8 -62 265 -57 269 5 4 1083 403 1092
403 6 1 25 -56 42 -126z m-5058 71 c30 -8 56 -16 59 -19 5 -5 -42 -292 -54
-337 -3 -10 -15 -18 -26 -18 -25 0 -100 21 -111 31 -8 6 9 326 19 357 4 13 7
13 113 -14z m180 -86 c-11 -57 -23 -123 -27 -148 -6 -37 -14 -49 -47 -71 -22
-15 -42 -26 -44 -24 -3 4 25 239 35 282 4 21 63 61 90 63 8 0 6 -32 -7 -102z
m531 -23 l0 -74 -247 -187 c-137 -103 -295 -224 -352 -267 l-103 -80 7 89 c4
49 10 108 14 131 l6 42 335 211 c184 115 336 210 338 210 1 0 2 -34 2 -75z
m4920 -72 c33 -70 57 -130 53 -133 -11 -9 -995 -402 -997 -398 -6 9 -69 298
-65 301 2 2 186 72 409 157 223 84 430 164 460 176 30 13 61 23 67 24 7 0 40
-57 73 -127z m-6844 -70 c-10 -73 -16 -85 -51 -125 -22 -23 -323 -359 -668
-745 -585 -654 -631 -703 -670 -713 -23 -6 -57 -14 -75 -19 l-32 -9 17 23 c23
30 1487 1674 1489 1672 1 -1 -3 -39 -10 -84z m574 -58 c267 -75 514 -145 550
-156 l65 -18 -3 -106 c-2 -58 -7 -105 -12 -105 -10 0 -1131 349 -1140 355 -5
3 12 156 19 173 0 2 9 1 19 -2 9 -3 235 -66 502 -141z m6758 -7 c17 -62 29
-114 28 -116 -6 -5 -819 -332 -821 -330 -13 19 -87 219 -83 223 7 8 819 333
834 334 6 1 25 -50 42 -111z m-7540 72 c22 0 13 -14 -28 -43 l-40 -28 0 25 c0
42 11 58 34 52 11 -3 27 -6 34 -6z m4431 -50 c44 -25 81 -47 81 -50 0 -7 -461
-182 -469 -178 -4 2 9 45 28 97 l36 94 115 42 c63 23 118 42 122 41 3 0 42
-21 87 -46z m-2334 -84 c-22 -37 -30 -44 -46 -37 -11 4 -21 11 -21 16 0 9 85
76 90 70 2 -2 -8 -24 -23 -49z m3234 -123 c22 -131 22 -138 5 -150 -10 -7 -21
-13 -26 -13 -7 0 -1028 -386 -1086 -410 -13 -6 -26 -10 -31 -10 -6 0 -47 265
-43 286 1 7 64 31 652 249 146 54 315 118 375 141 61 23 115 43 120 43 6 1 21
-60 34 -136z m-5004 90 c28 -8 53 -18 57 -22 4 -3 3 -58 -2 -121 -5 -63 -25
-342 -45 -620 -19 -278 -38 -523 -40 -546 l-6 -40 -106 18 c-59 11 -109 21
-112 24 -3 3 7 98 21 212 90 700 139 1080 144 1100 3 18 9 22 22 17 9 -4 40
-14 67 -22z m4244 -60 c7 -43 15 -88 18 -99 5 -25 32 -13 -377 -163 -135 -49
-246 -89 -247 -87 -1 1 15 55 37 121 l38 119 249 92 c136 51 253 93 259 93 6
1 17 -33 23 -76z m1462 -109 c32 -129 34 -146 20 -153 -65 -32 -1233 -492
-1238 -487 -8 7 -63 309 -58 315 2 1 174 68 382 148 208 80 482 185 608 233
127 49 235 89 240 89 6 1 27 -64 46 -145z m-5508 107 c4 -4 -6 -205 -23 -447
-17 -241 -36 -520 -43 -619 l-12 -180 -50 -27 c-27 -15 -51 -25 -53 -23 -4 4
97 1259 104 1293 4 21 9 23 37 17 18 -4 35 -10 40 -14z m7083 -87 l22 -75 -32
-15 c-17 -8 -85 -36 -151 -64 l-120 -49 -33 71 c-18 39 -31 75 -29 81 3 11
310 138 317 131 2 -3 14 -39 26 -80z m-5670 49 c-8 -16 -91 -164 -184 -330
l-169 -303 -7 68 c-13 148 -16 139 102 329 93 152 115 180 166 219 33 24 70
44 83 44 22 0 23 -1 9 -27z m-1285 -2 c14 -5 9 -16 -28 -69 -25 -35 -46 -62
-48 -60 -1 2 0 36 3 75 l4 73 27 -7 c14 -3 33 -9 42 -12z m1376 3 c22 -6 22
-6 -12 -74 l-35 -69 108 -35 c59 -20 112 -36 119 -36 6 0 46 41 89 90 56 65
84 90 101 90 13 0 23 -4 23 -8 0 -17 -78 -323 -84 -329 -5 -5 -81 16 -402 113
l-82 25 30 57 c102 193 99 188 145 176z m-1879 -106 l-9 -93 -127 -189 c-70
-103 -172 -254 -228 -334 l-101 -146 -314 -179 c-439 -249 -407 -235 -324
-143 155 168 1100 1175 1105 1175 3 1 2 -41 -2 -91z m631 61 c17 -6 31 -13 31
-15 0 -6 -253 -315 -255 -312 -1 2 1 32 4 68 6 65 7 67 91 168 46 56 87 102
91 102 3 0 20 -5 38 -11z m5884 -111 c20 -61 35 -113 34 -114 -11 -10 -1109
-445 -1113 -441 -13 12 -65 230 -57 237 4 4 217 89 473 190 256 101 497 196
535 211 39 15 75 28 80 28 6 1 27 -49 48 -111z m-4084 65 c64 -20 118 -38 120
-40 3 -2 -24 -59 -60 -127 -35 -68 -62 -126 -59 -128 3 -3 90 -30 194 -62 104
-32 194 -60 201 -63 9 -3 21 31 40 111 14 64 30 116 33 116 4 0 17 -3 30 -6
l23 -6 -7 -147 c-4 -80 -8 -148 -10 -150 -3 -3 -695 198 -703 205 -3 3 15 87
55 267 9 37 18 67 21 67 3 0 58 -17 122 -37z m-1509 -45 c74 -23 137 -43 138
-44 2 -1 1 -72 -3 -157 l-8 -155 -171 45 c-94 25 -172 46 -174 47 -2 3 55 267
63 294 6 17 4 17 155 -30z m6183 -46 c15 -37 27 -72 27 -77 0 -6 -12 -15 -27
-21 -61 -24 -871 -354 -915 -373 l-47 -20 -20 67 c-11 37 -21 75 -23 85 -2 15
75 50 477 212 264 107 485 194 490 195 6 0 22 -30 38 -68z m-6421 -70 c-15
-66 -30 -124 -34 -127 -5 -6 -115 19 -124 28 -2 2 37 54 87 116 51 61 93 110
95 108 2 -2 -9 -58 -24 -125z m806 19 c-35 -55 -66 -100 -69 -101 -3 0 -6 24
-7 53 l-2 52 68 51 c37 28 68 50 70 48 2 -1 -25 -47 -60 -103z m-303 18 l42
-11 7 -166 c8 -225 10 -1192 2 -1193 -4 -1 -45 11 -93 26 l-86 27 6 136 c4 75
14 348 22 607 19 566 21 599 42 591 9 -4 35 -11 58 -17z m215 -580 c10 -305
20 -601 21 -659 l3 -104 -53 -23 c-30 -13 -55 -22 -56 -21 -1 2 -5 301 -9 665
l-7 662 38 20 c21 10 39 18 41 16 1 -1 11 -251 22 -556z m750 381 c228 -67
420 -123 426 -125 8 -2 4 -50 -12 -161 -13 -86 -25 -158 -27 -160 -3 -3 -920
225 -926 231 -2 2 13 66 33 142 55 202 55 205 74 199 10 -3 204 -60 432 -126z
m1825 -43 c10 -72 13 -133 9 -137 -5 -5 -81 -35 -169 -68 -88 -33 -303 -115
-479 -181 -175 -67 -321 -121 -324 -121 -5 0 7 312 13 318 8 8 340 131 343
127 2 -2 -3 -24 -11 -49 -9 -26 -15 -46 -14 -47 1 -1 81 -16 177 -33 l175 -32
55 165 55 165 70 26 c62 23 71 25 77 11 3 -9 14 -74 23 -144z m-728 139 c1 -1
-1 -49 -4 -107 l-6 -105 -105 -37 c-58 -20 -107 -35 -110 -33 -2 3 -1 70 3
149 l7 145 107 -5 c58 -3 107 -6 108 -7z m-3280 -126 c-5 -63 -11 -117 -13
-119 -6 -7 -104 23 -104 32 0 18 118 212 125 205 1 -2 -2 -55 -8 -118z m3409
94 l52 -15 -16 -51 c-16 -47 -21 -53 -70 -75 -29 -12 -54 -23 -56 -23 -2 0 -7
35 -10 78 -4 42 -10 85 -13 96 -6 20 10 19 113 -10z m-1768 -146 l-30 -127
-32 6 c-17 3 -32 7 -34 8 -2 2 24 58 58 125 34 67 63 121 65 119 2 -2 -10 -61
-27 -131z m-841 41 c147 -39 269 -71 270 -73 1 -1 -20 -69 -47 -151 -39 -123
-52 -150 -67 -149 -21 1 -534 142 -541 148 -2 3 -1 43 3 90 7 83 9 89 54 146
25 32 49 59 53 60 4 0 128 -32 275 -71z m3812 -101 c12 -79 23 -152 26 -163 4
-18 -57 -44 -577 -252 -320 -128 -583 -231 -585 -229 -7 6 -44 308 -41 328 2
15 22 28 78 50 41 15 289 110 550 209 261 100 482 185 490 190 33 18 38 7 59
-133z m775 -67 c14 -63 25 -115 24 -117 -9 -8 -1198 -479 -1198 -475 -1 3 -9
60 -19 126 -11 66 -16 123 -13 127 4 3 237 97 517 208 281 110 542 213 580
229 39 16 73 26 76 22 3 -3 18 -57 33 -120z m730 20 l24 -82 -21 -8 c-24 -9
-885 -359 -1131 -460 -82 -34 -152 -61 -156 -61 -9 0 -45 169 -38 176 7 6
1292 522 1296 519 1 -1 13 -39 26 -84z m-3388 30 c32 -11 98 -31 147 -46 l87
-26 0 -62 c0 -34 -3 -105 -6 -158 l-7 -96 -166 42 c-147 36 -166 44 -169 63
-2 12 4 79 12 150 9 70 16 133 16 140 0 17 16 15 86 -7z m-2803 -18 l59 -16
-7 -91 c-4 -50 -9 -93 -11 -95 -6 -6 -204 53 -204 61 0 11 92 158 98 158 3 0
32 -7 65 -17z m1142 -239 c-5 -27 -9 -31 -31 -26 -17 3 -24 10 -22 21 3 9 15
58 29 110 l24 93 3 -83 c2 -46 1 -98 -3 -115z m744 111 c156 -41 287 -77 289
-80 9 -8 -61 -317 -72 -321 -6 -2 -132 29 -281 69 l-270 73 -7 110 c-7 104 -6
111 19 167 15 31 29 57 32 57 3 0 134 -34 290 -75z m-1373 -27 c-3 -13 -13
-53 -22 -91 -9 -37 -19 -66 -21 -64 -2 2 0 43 3 91 6 77 9 86 27 86 15 0 18
-5 13 -22z m335 -73 c154 -41 282 -75 285 -75 6 0 5 -174 -2 -207 l-6 -30
-300 93 c-165 51 -302 95 -305 98 -8 8 33 196 43 196 3 0 131 -34 285 -75z
m-1007 45 l25 -9 -30 -68 c-17 -37 -33 -71 -37 -75 -4 -4 -28 -2 -53 4 l-47
11 44 53 c24 30 48 63 54 74 12 23 11 23 44 10z m140 -44 l58 -17 -7 -77 c-4
-42 -8 -78 -10 -80 -3 -4 -195 45 -201 51 -9 8 78 148 90 144 6 -2 37 -12 70
-21z m2646 -97 c212 -55 387 -103 389 -105 5 -5 3 -102 -5 -247 -5 -85 -10
-107 -20 -103 -8 3 -197 55 -421 117 -225 61 -411 114 -415 117 -3 4 4 70 18
147 34 193 32 187 52 181 9 -3 190 -51 402 -107z m864 -109 c4 -69 9 -141 12
-160 l6 -36 -194 -77 c-106 -42 -197 -77 -201 -77 -8 0 -8 157 2 284 l6 89
175 67 c150 58 176 65 181 51 3 -9 9 -72 13 -141z m-2937 36 c43 -13 150 -46
238 -71 88 -26 163 -49 167 -52 10 -5 -64 -153 -77 -153 -5 0 -105 31 -220 69
-187 61 -210 71 -209 90 0 11 1 48 2 81 1 33 6 60 11 60 6 0 45 -11 88 -24z
m3678 -120 c9 -70 15 -129 13 -130 -1 -2 -256 -105 -566 -229 -391 -157 -564
-222 -568 -213 -2 6 -3 70 -2 141 l3 129 95 38 c454 180 1005 396 1007 394 1
-1 9 -59 18 -130z m-2646 72 c0 -13 -6 -52 -14 -88 -12 -60 -13 -62 -14 -24
-1 23 -4 62 -7 88 -6 42 -5 46 15 46 15 0 21 -6 20 -22z m322 -67 c140 -38
342 -93 449 -122 107 -28 197 -53 199 -55 3 -3 -27 -239 -34 -261 -3 -9 -14
-8 -47 2 -381 116 -610 185 -733 222 -82 25 -153 48 -156 51 -11 12 43 232 56
232 7 0 127 -31 266 -69z m2926 -48 c5 -49 9 -89 9 -89 -1 -1 -181 -75 -401
-164 -220 -89 -487 -198 -593 -241 -106 -44 -197 -79 -201 -79 -9 0 -27 178
-18 186 7 8 1170 473 1183 474 6 0 15 -37 21 -87z m-3767 10 l60 -18 0 -92 c0
-68 -3 -93 -12 -93 -19 0 -171 51 -182 61 -10 9 52 159 66 159 5 0 36 -8 68
-17z m742 -223 c127 -38 233 -71 235 -74 4 -4 -15 -82 -32 -132 -2 -8 -57 4
-167 36 -90 26 -189 55 -220 64 l-56 16 -4 80 c-2 44 1 80 5 80 4 0 112 -31
239 -70z m1003 17 l190 -52 -3 -115 c-4 -150 -10 -183 -30 -175 -9 3 -103 32
-210 65 -106 32 -196 60 -198 63 -4 4 24 228 32 255 5 17 10 17 219 -41z
m-265 -239 l440 -131 0 -61 c0 -34 -4 -67 -9 -74 -6 -10 -102 15 -437 113
-236 69 -443 130 -460 136 l-31 10 20 69 c12 39 25 70 29 70 5 0 206 -59 448
-132z m1046 -14 c-3 -26 -6 -70 -6 -99 l0 -52 -226 -92 c-124 -51 -228 -90
-231 -87 -3 3 -8 47 -10 98 l-5 93 229 92 c125 50 234 92 242 92 11 1 12 -9 7
-45z"/>
<path d="M8675 12377 c-2 -7 -62 -165 -134 -352 -264 -693 -850 -2231 -855
-2245 -5 -11 18 -27 89 -63 l96 -47 18 42 c10 24 267 602 570 1285 303 683
551 1245 551 1248 0 3 -17 13 -37 22 -240 101 -294 121 -298 110z m161 -103
c68 -28 113 -51 110 -58 -2 -6 -131 -299 -286 -651 -155 -352 -394 -896 -532
-1210 -138 -313 -257 -582 -264 -597 l-14 -27 -60 27 c-33 15 -58 32 -56 37 2
6 150 386 329 845 178 459 398 1025 488 1257 90 233 165 423 166 423 2 0 55
-21 119 -46z"/>
<path d="M9095 12172 c-32 -67 -1177 -2507 -1182 -2518 -5 -14 215 -100 227
-88 9 10 89 149 899 1563 282 491 511 895 509 896 -2 2 -97 42 -213 90 -115
48 -213 89 -216 91 -3 2 -14 -14 -24 -34z m147 -81 c46 -22 114 -53 151 -69
l66 -30 -666 -1189 c-366 -653 -666 -1189 -668 -1190 -1 -2 -36 11 -77 28
l-76 31 82 171 c46 95 311 648 591 1230 279 581 509 1057 510 1057 1 0 40 -18
87 -39z"/>
<path d="M2360 10549 c-88 -196 -101 -232 -89 -243 37 -36 1991 -1566 1998
-1566 10 0 131 221 131 239 0 10 -1918 1801 -1929 1801 -4 0 -54 -104 -111
-231z m1098 -783 c480 -428 872 -783 872 -788 0 -22 -83 -158 -93 -151 -6 3
-418 331 -916 727 -498 397 -918 730 -933 741 -15 11 -28 24 -28 29 0 5 31 74
70 153 l70 145 43 -38 c24 -22 436 -389 915 -818z"/>
<path d="M2144 10093 c-14 -32 -64 -146 -111 -253 l-86 -194 22 -15 c12 -8
481 -294 1043 -637 l1021 -623 38 77 c21 42 54 96 73 119 l36 42 -127 99
c-490 379 -1874 1442 -1878 1442 -3 0 -17 -26 -31 -57z m1032 -777 c516 -389
940 -710 942 -715 2 -6 -80 -165 -93 -179 -2 -3 -1955 1244 -1968 1257 -11 11
154 353 168 347 6 -2 434 -322 951 -710z"/>
<path d="M7627 9607 c-3 -7 -50 -129 -105 -272 -55 -143 -177 -460 -272 -705
-95 -245 -205 -530 -245 -635 -40 -104 -83 -214 -94 -243 l-21 -52 35 -17 c19
-9 36 -15 38 -12 3 2 58 126 124 274 67 149 252 563 412 922 160 359 291 656
291 660 -1 15 -158 93 -163 80z m72 -69 c20 -12 37 -22 39 -24 3 -1 -777
-1805 -783 -1812 -2 -2 -10 0 -18 5 -12 6 53 178 339 908 390 993 371 945 380
945 4 0 23 -10 43 -22z"/>
<path d="M7412 8588 l-432 -923 22 -17 c13 -10 26 -18 29 -18 8 0 1023 1790
1018 1794 -6 4 -196 86 -200 86 -2 0 -199 -415 -437 -922z m525 850 c29 -12
53 -25 53 -28 0 -6 -948 -1739 -957 -1749 -2 -3 -9 1 -15 7 -9 9 21 78 124
289 74 153 269 554 433 891 164 336 301 612 304 612 3 0 29 -10 58 -22z"/>
<path d="M4482 8743 c-35 -57 -62 -107 -60 -112 2 -5 356 -292 788 -637 432
-345 804 -642 826 -661 l41 -33 42 54 c22 31 41 59 41 65 0 7 -1516 1350
-1595 1412 -19 16 -22 13 -83 -88z m941 -717 l707 -619 -18 -31 c-10 -17 -22
-30 -28 -28 -11 3 -1592 1271 -1600 1283 -3 5 14 40 37 79 l41 70 77 -68 c42
-37 395 -345 784 -686z"/>
<path d="M4269 8384 l-77 -113 737 -478 c405 -262 800 -519 878 -569 l142 -93
26 45 c15 25 25 49 23 53 -9 25 -269 223 -761 579 -407 295 -633 467 -776 591
-47 41 -93 80 -101 87 -13 10 -27 -5 -91 -102z m900 -564 c440 -327 800 -600
801 -606 0 -5 -6 -18 -13 -28 -12 -16 -84 29 -850 530 -460 301 -837 550 -837
555 0 16 83 150 91 147 4 -2 368 -271 808 -598z"/>
<path d="M6467 7368 c-75 -41 -134 -98 -160 -156 -29 -65 -27 -173 5 -266 l23
-69 62 -22 c33 -12 138 -48 233 -80 l171 -58 62 17 c129 36 222 102 259 184
24 53 25 145 3 216 l-17 54 -277 106 c-152 58 -283 106 -291 106 -8 0 -41 -15
-73 -32z m332 -104 c255 -93 281 -109 300 -181 18 -69 -4 -127 -72 -191 -51
-46 -116 -81 -199 -108 l-58 -18 -194 73 -194 73 -13 50 c-14 59 -7 157 15
208 24 58 71 115 122 148 26 18 50 32 53 32 2 0 111 -39 240 -86z"/>
<path d="M6927 7139 c-122 -42 -187 -112 -187 -202 0 -51 14 -97 30 -97 5 0
10 10 10 23 1 61 71 163 164 237 80 64 77 72 -17 39z"/>
<path d="M7219 6935 c-1 -52 -2 -98 -3 -102 -1 -5 253 -255 564 -557 l564
-549 73 77 c40 43 73 81 72 84 0 4 -91 88 -202 187 -110 99 -393 354 -629 568
-236 213 -430 387 -433 387 -3 0 -6 -43 -6 -95z m651 -540 c305 -279 556 -510
558 -514 1 -4 -16 -24 -38 -46 l-40 -39 -68 65 c-51 50 -958 898 -1030 964
-10 9 -12 28 -6 74 l7 62 31 -29 c17 -16 281 -258 586 -537z"/>
<path d="M7168 6738 l-36 -40 501 -590 502 -590 63 67 62 67 -82 87 c-46 48
-164 179 -262 291 -326 372 -481 537 -626 669 l-85 78 -37 -39z m536 -528
c273 -292 496 -534 496 -538 0 -5 -17 -23 -38 -40 l-39 -30 -454 526 c-250
289 -462 536 -472 549 -15 19 -16 25 -5 43 7 11 14 20 15 20 1 0 225 -239 497
-530z"/>
<path d="M5762 5764 c-359 -657 -471 -869 -461 -875 43 -26 241 -101 249 -93
5 5 126 297 270 649 144 352 309 754 366 894 57 140 104 257 104 261 0 4 -8
10 -17 14 -10 3 -22 8 -28 11 -5 3 -223 -385 -483 -861z m502 827 c3 -4 -134
-334 -305 -732 -171 -398 -340 -792 -376 -876 l-65 -152 -80 35 c-44 19 -82
34 -84 34 -2 0 -4 4 -4 9 0 7 719 1373 846 1609 43 78 56 93 68 73z"/>
<path d="M6312 6407 c-39 -100 -199 -510 -356 -911 -158 -401 -285 -730 -284
-731 2 -1 74 -18 161 -37 l157 -35 10 36 c22 83 450 1814 450 1820 0 4 -15 15
-34 23 l-34 17 -70 -182z m115 129 c-5 -14 -38 -141 -247 -958 -44 -172 -109
-427 -144 -567 -36 -139 -67 -256 -70 -258 -7 -7 -228 27 -237 36 -4 3 23 85
60 181 89 233 163 428 391 1030 105 278 195 515 200 528 11 25 56 33 47 8z"/>
<path d="M8541 5701 l-72 -79 947 -971 947 -971 54 122 c30 68 67 153 83 191
l29 67 -647 582 c-716 645 -1228 1104 -1253 1125 -14 12 -25 4 -88 -66z m999
-831 c459 -419 852 -779 872 -799 l37 -36 -35 -80 c-20 -44 -44 -99 -54 -123
l-19 -42 -907 917 -907 918 49 42 48 43 41 -39 c22 -21 416 -381 875 -801z"/>
<path d="M8298 5446 l-87 -93 912 -1101 c502 -606 915 -1100 919 -1099 3 1 64
78 133 170 l127 168 -54 57 c-29 31 -446 478 -925 992 -479 514 -886 949 -904
967 l-34 31 -87 -92z m1010 -960 l910 -989 -76 -111 c-43 -62 -86 -124 -98
-140 l-20 -28 -882 1069 -882 1068 62 63 c35 34 65 61 69 60 3 -2 416 -448
917 -992z"/>
<path d="M4475 3464 c-401 -717 -731 -1310 -733 -1318 -2 -8 73 -34 243 -81
134 -38 247 -66 250 -64 2 3 65 135 139 295 73 159 350 757 615 1328 265 572
483 1044 484 1049 2 8 -233 96 -258 96 -5 0 -338 -587 -740 -1305z m831 1220
c41 -15 76 -30 79 -34 2 -3 -28 -74 -66 -156 -77 -163 -236 -514 -404 -889
-476 -1065 -696 -1535 -717 -1535 -15 0 -359 88 -364 93 -2 1 240 446 537 987
297 542 611 1114 697 1272 86 158 159 288 160 288 2 0 37 -12 78 -26z"/>
<path d="M5052 3357 c-299 -710 -556 -1322 -572 -1358 l-28 -66 360 -102 c198
-57 361 -101 362 -99 1 1 10 30 19 63 9 33 70 256 137 495 604 2166 630 2263
626 2267 -5 5 -336 93 -349 93 -7 0 -256 -582 -555 -1293z m721 1190 c71 -18
129 -34 130 -37 1 -4 -763 -2689 -768 -2697 0 -1 -115 33 -255 76 -140 42
-271 82 -290 87 -19 6 -34 15 -33 20 8 39 1070 2584 1078 2584 6 0 68 -15 138
-33z"/>
<path d="M4027 12120 c-43 -55 -81 -100 -85 -100 -4 0 -34 7 -67 15 -55 13
-61 13 -73 -3 -11 -14 -7 -19 35 -40 27 -14 50 -26 51 -27 4 -4 -452 -641
-479 -669 -18 -19 -19 -19 -78 -1 -49 15 -63 16 -76 5 -24 -20 -19 -28 39 -57
l54 -28 -84 -103 c-46 -57 -84 -107 -84 -112 0 -4 7 -13 16 -20 13 -12 30 2
122 98 l107 111 155 -59 c134 -50 157 -56 170 -44 9 9 11 17 5 23 -6 5 -71 35
-145 67 -74 31 -139 61 -143 64 -7 6 444 652 484 694 5 6 94 -5 226 -28 120
-21 219 -39 220 -40 1 -1 -41 -60 -93 -131 -88 -122 -93 -130 -72 -136 20 -5
35 11 117 120 l93 126 47 -4 c140 -14 157 0 53 42 l-71 29 60 86 c59 86 59 86
37 98 -21 11 -26 7 -86 -74 -34 -48 -69 -88 -77 -90 -16 -4 -351 55 -377 66
-15 6 -8 19 47 91 36 46 65 87 65 91 0 4 -8 14 -18 23 -18 16 -22 12 -95 -83z"/>
<path d="M5551 11917 c-24 -45 -45 -83 -46 -85 -2 -2 -49 9 -105 23 -56 14
-105 23 -108 20 -7 -7 -9 -5 80 -54 43 -23 80 -46 83 -52 4 -5 -42 -99 -100
-208 l-107 -199 -102 45 c-152 67 -139 55 -115 116 33 80 34 87 13 87 -12 0
-29 -17 -46 -48 -49 -86 -45 -84 -107 -67 -40 10 -58 11 -68 3 -22 -18 -15
-24 42 -43 30 -11 55 -22 55 -26 0 -11 -131 -303 -140 -313 -7 -6 -149 50
-179 71 -2 1 8 30 23 63 33 78 33 84 -4 65 -18 -9 -40 -35 -55 -65 -14 -28
-28 -50 -31 -50 -2 0 -95 20 -206 45 -232 52 -232 52 -219 27 9 -16 163 -70
359 -124 l33 -9 -47 -87 c-26 -48 -85 -153 -131 -234 -76 -132 -89 -168 -64
-168 4 0 49 61 100 135 89 131 163 263 176 316 l7 27 116 -46 c64 -24 139 -51
166 -58 l49 -13 -32 33 -32 33 81 164 c45 90 83 165 85 167 1 1 56 -24 123
-55 l121 -58 -34 -55 c-19 -30 -35 -57 -35 -61 0 -3 20 -15 43 -26 l44 -21 29
68 c28 68 30 69 69 72 l40 3 -38 23 -37 24 56 106 c31 59 79 150 107 202 28
52 51 96 52 98 1 1 18 -4 37 -12 l35 -15 12 38 c16 55 14 61 -20 61 -21 0 -29
4 -26 13 68 157 69 159 55 173 -11 11 -20 0 -57 -69z"/>
<path d="M4873 10788 c-6 -7 -22 -37 -37 -65 -14 -29 -27 -53 -29 -53 -1 0
-56 18 -122 40 -66 22 -125 40 -132 40 -13 0 -38 -38 -30 -46 2 -3 61 -21 130
-40 l125 -36 -74 -155 c-41 -85 -74 -159 -74 -164 0 -5 10 -9 23 -9 18 0 36
24 96 129 l74 129 46 -14 c84 -26 88 -26 95 -9 9 24 1 32 -57 61 -29 15 -53
28 -55 29 -2 2 13 35 33 75 20 40 35 73 33 74 -2 1 -10 7 -19 14 -13 10 -18
10 -26 0z"/>
<path d="M6017 11402 c-20 -158 -55 -426 -78 -596 -22 -169 -38 -310 -36 -312
2 -3 170 36 373 86 203 49 421 103 484 118 63 15 114 32 112 38 -2 5 -104 144
-227 309 -232 311 -235 314 -530 587 l-61 56 -37 -286z m237 -25 c59 -35 109
-66 109 -71 0 -10 -397 -716 -401 -712 -1 2 31 165 72 362 41 197 80 387 87
422 7 34 15 62 19 62 3 -1 54 -29 114 -63z m198 -179 l46 -73 3 -195 4 -194
-95 -23 c-52 -12 -98 -22 -102 -23 -5 0 -8 90 -8 200 l0 200 47 94 c26 52 50
93 53 91 3 -2 26 -36 52 -77z m187 -297 c39 -62 70 -115 69 -116 -4 -2 -135
-35 -142 -35 -8 0 -16 78 -18 187 -2 76 0 99 8 90 6 -7 44 -63 83 -126z m-389
-74 l0 -152 -77 -18 c-43 -9 -81 -17 -85 -17 -4 0 26 66 66 148 40 81 76 157
80 170 4 12 9 22 12 22 2 0 4 -69 4 -153z"/>
<path d="M6592 11405 c-21 -16 -18 -19 188 -242 115 -125 207 -229 204 -232
-3 -3 -26 -13 -52 -22 -39 -13 -48 -20 -50 -42 -4 -32 -8 -31 90 -10 l77 16
28 -34 c73 -87 71 -86 88 -65 13 17 11 23 -21 61 -34 42 -34 43 -12 49 13 3
35 6 51 6 28 0 32 6 21 34 -4 10 -15 14 -32 11 -15 -2 -45 -6 -68 -9 l-41 -6
-223 250 c-122 138 -223 250 -224 250 -1 0 -11 -7 -24 -15z"/>
<path d="M5524 11076 c-18 -13 -18 -16 -1 -68 9 -30 17 -58 17 -61 0 -4 -16
-13 -36 -22 -59 -24 -37 -46 35 -34 22 4 27 -6 88 -185 35 -103 63 -189 61
-190 -3 -2 -288 -68 -301 -70 -5 -1 -29 54 -55 122 -41 107 -49 122 -69 122
-26 0 -28 -7 -12 -47 6 -15 26 -69 44 -119 l33 -92 -49 -26 c-27 -15 -49 -34
-49 -42 0 -18 13 -18 72 0 l47 15 21 -64 c21 -62 22 -64 45 -53 26 12 26 13 5
95 -5 18 -5 35 -2 37 24 13 275 86 281 81 3 -4 13 -24 21 -45 10 -25 19 -37
27 -32 8 5 -8 75 -58 251 -39 134 -68 249 -65 256 2 7 39 21 80 31 57 13 76
22 76 34 0 15 -7 16 -57 9 -135 -20 -118 -25 -143 42 -26 69 -31 73 -56 55z"/>
<path d="M6940 10328 c0 -2 20 -160 45 -352 25 -192 44 -350 42 -351 -3 -3
-463 -135 -469 -135 -3 0 -9 41 -13 91 -9 109 -16 141 -31 131 -7 -5 -8 -31
-3 -82 11 -109 11 -160 -2 -160 -29 0 -120 -33 -112 -41 5 -5 33 -2 66 8 32 9
59 14 61 12 1 -2 24 -242 50 -534 26 -291 50 -542 52 -557 8 -41 34 -37 28 5
-2 17 -25 257 -49 532 -24 275 -47 515 -49 532 l-5 33 82 24 c327 98 390 116
396 111 5 -2 14 -58 21 -125 9 -88 17 -120 26 -120 17 0 17 25 0 155 -9 68
-10 102 -3 106 5 4 48 17 94 29 77 21 102 34 90 46 -3 3 -46 -7 -97 -21 -50
-15 -94 -24 -98 -21 -4 5 -90 635 -92 679 0 6 -30 11 -30 5z"/>
<path d="M2731 8775 c-1 -11 -19 -193 -39 -405 l-37 -385 -35 4 c-63 8 -83 6
-87 -6 -3 -8 18 -17 57 -25 l62 -12 -5 -48 c-5 -36 -3 -48 7 -48 17 0 26 22
26 61 0 25 3 29 23 24 65 -15 648 -105 678 -105 5 0 9 -22 9 -49 0 -28 4 -52
9 -55 10 -7 21 27 21 68 l0 28 58 -7 c31 -3 67 -9 80 -12 13 -3 22 0 22 6 0 6
-1 11 -2 12 -2 0 -37 6 -78 12 l-75 12 0 40 c1 22 3 87 5 144 4 73 2 105 -7
108 -8 3 -13 -37 -18 -137 -4 -77 -11 -142 -15 -145 -11 -7 -695 115 -704 126
-1 2 10 168 26 369 15 201 27 383 25 405 -2 22 -5 31 -6 20z"/>
<path d="M2425 7636 c-5 -17 -115 -1199 -113 -1201 6 -4 2120 -306 2123 -303
1 2 8 127 14 278 7 151 16 363 21 470 5 107 12 276 16 375 l7 180 -719 73
c-395 41 -860 88 -1033 106 -212 22 -314 29 -316 22z m300 -69 c148 -18 190
-26 192 -37 4 -24 -42 -539 -49 -545 -7 -7 -425 49 -434 57 -3 3 4 124 15 268
12 144 21 266 21 271 0 13 41 10 255 -14z m468 -53 c122 -14 223 -26 224 -28
4 -4 -47 -570 -52 -574 -5 -5 -446 56 -452 62 -8 8 45 566 54 566 2 0 104 -12
226 -26z m743 -87 c6 -5 -21 -586 -27 -591 -6 -5 -480 62 -486 68 -5 5 32 473
43 546 l5 36 230 -27 c127 -15 233 -29 235 -32z m302 -28 l202 -22 0 -41 c0
-57 -29 -568 -32 -571 -5 -4 -436 60 -442 65 -3 4 23 463 34 588 0 5 44 2 238
-19z m-1579 -439 c113 -17 206 -32 208 -34 2 -2 -39 -497 -42 -503 -2 -4 -425
54 -431 59 -3 3 3 119 13 257 14 211 20 251 33 251 8 0 107 -14 219 -30z m476
-70 c116 -17 215 -33 220 -34 10 -4 -28 -482 -39 -493 -6 -6 -433 49 -447 58
-14 8 30 499 45 499 6 0 106 -14 221 -30z m550 -81 c121 -17 221 -32 222 -33
4 -4 -23 -485 -28 -489 -5 -5 -499 60 -506 66 -2 3 5 105 16 228 12 122 21
233 21 247 0 20 4 23 28 18 15 -3 126 -19 247 -37z m529 -75 l199 -29 -7 -90
c-3 -49 -9 -159 -12 -242 -5 -101 -11 -153 -18 -153 -25 1 -448 59 -451 62 -2
2 30 469 34 487 1 2 13 1 29 -2 15 -3 116 -18 226 -33z"/>
<path d="M2950 6242 c-2 -41 -67 -573 -71 -577 -5 -4 -329 57 -427 80 -19 5
-22 10 -18 38 18 117 18 127 -2 127 -21 0 -32 -38 -32 -113 0 -38 0 -39 -37
-35 -30 2 -38 -1 -41 -15 -3 -12 3 -17 20 -17 51 0 51 12 4 -460 -25 -244 -44
-445 -43 -446 1 -1 11 -4 22 -6 15 -2 21 3 23 22 1 14 20 213 41 443 22 230
42 421 44 424 5 5 435 -82 443 -89 2 -3 -1 -40 -6 -83 -10 -76 -6 -94 21 -95
8 0 19 63 19 110 1 65 -1 65 204 22 103 -22 190 -42 193 -46 5 -5 -21 -244
-33 -308 -5 -23 -2 -28 14 -28 17 0 21 16 37 165 12 105 23 165 30 165 7 0 77
-14 156 -30 136 -29 144 -30 156 -13 17 22 19 21 -170 59 l-148 29 6 50 c3 27
8 62 11 78 5 22 2 27 -14 27 -17 0 -20 -10 -26 -72 -3 -39 -8 -73 -9 -74 -3
-3 -387 73 -391 77 -2 2 9 128 25 279 15 151 29 282 29 291 0 16 -30 36 -30
21z"/>
<path d="M4905 6488 c-3 -7 -6 -166 -7 -352 l-3 -339 -60 -22 c-37 -13 -61
-27 -63 -38 -3 -15 2 -15 54 3 31 11 59 20 61 20 1 0 3 -25 3 -55 0 -42 3 -55
15 -55 12 0 15 14 15 63 l0 62 87 32 c48 18 89 30 92 28 3 -4 14 -367 20 -677
1 -16 6 -28 12 -28 7 0 9 109 7 361 l-3 362 160 58 c88 32 165 60 170 62 7 3
7 8 0 15 -7 7 -59 -8 -170 -48 -88 -33 -161 -60 -162 -60 -2 0 -3 41 -3 90 0
72 -3 90 -15 90 -11 0 -15 -20 -17 -97 l-3 -96 -67 -23 c-36 -12 -76 -25 -89
-29 l-22 -7 7 346 c6 252 5 346 -4 346 -6 0 -13 -6 -15 -12z"/>
<path d="M7508 4925 c-2 -3 -1 -28 3 -57 17 -117 18 -115 -61 -138 -38 -11
-70 -25 -70 -30 0 -19 22 -20 80 -4 33 9 63 14 67 10 4 -3 21 -113 39 -244 18
-130 35 -254 38 -274 6 -36 6 -37 -46 -56 -157 -57 -389 -134 -393 -130 -3 2
-21 103 -40 224 -43 271 -42 264 -61 264 -19 0 -20 10 29 -301 l33 -207 -54
-17 c-48 -15 -53 -19 -40 -31 13 -13 20 -13 56 -1 29 10 42 11 45 3 2 -6 22
-123 43 -260 31 -203 42 -253 58 -268 11 -10 21 -17 22 -15 1 1 -18 128 -42
281 -25 153 -41 282 -37 286 4 4 100 38 213 75 113 37 210 70 216 72 6 2 15
-30 22 -83 6 -48 13 -89 15 -91 2 -2 11 -1 19 2 13 5 13 17 2 93 -7 48 -10 90
-6 93 4 4 51 21 104 39 91 29 97 33 87 52 -6 11 -16 18 -22 15 -99 -36 -177
-61 -180 -57 -3 3 -21 118 -41 255 -20 138 -39 261 -42 275 -4 24 -1 26 136
64 90 25 140 44 140 53 0 19 -19 17 -152 -22 -66 -19 -124 -32 -128 -30 -4 3
-11 35 -15 72 -9 86 -18 107 -37 88z"/>
<path d="M2657 3658 c-21 -116 -36 -212 -34 -215 3 -2 57 44 121 103 65 58
119 105 120 103 2 -2 -41 -116 -95 -254 -55 -137 -102 -259 -105 -270 -4 -11
66 67 155 173 90 105 164 192 166 192 4 0 -14 -50 -154 -430 -49 -134 -89
-245 -88 -247 1 -1 97 121 212 272 115 150 211 273 212 271 1 -1 -47 -139
-107 -306 -61 -167 -109 -305 -107 -306 2 -2 84 104 182 236 98 132 180 238
182 237 2 -2 -138 -442 -163 -512 -4 -11 46 32 109 95 l116 114 3 -119 3 -120
51 240 c48 221 55 268 36 238 -11 -18 -207 -241 -209 -239 -2 2 183 518 222
621 11 27 11 27 -155 -165 -78 -91 -151 -174 -162 -185 -11 -11 35 90 102 224
66 134 120 244 118 246 -2 2 -59 -56 -128 -129 -272 -287 -353 -370 -348 -356
4 8 65 141 137 294 72 154 129 281 127 283 -1 2 -75 -64 -164 -147 -88 -82
-163 -150 -165 -150 -3 0 41 88 98 195 56 107 102 195 100 195 -1 0 -82 -60
-181 -134 -98 -74 -180 -133 -182 -131 -2 2 1 67 8 145 7 78 11 143 9 145 -2
2 -21 -91 -42 -207z"/>
</g>
</svg>
