<?xml version="1.0" ?><svg data-name="Layer 1" id="Layer_1" viewBox="0 0 512 512" xmlns="http://www.w3.org/2000/svg"><path d="M483.54,299.21c-8.61-8.12-20.67-10.41-28.2-11,3.3-11,7-33.67-11.31-50s-36.75-13.32-45.47-10.59c-5.81-13.58-24.05-35.7-52.44-35.7-21,0-33.26,5.72-39.5,10a54.36,54.36,0,0,0-4.09-6.32c-14.15-18.85-37.1-17.34-47.52-15.44-2.58-14.39-14.61-51.38-69.87-51.38-54.92,0-67.69,37.44-70.59,52.32a49.67,49.67,0,0,0-42.13,8.44c-18.14,13.4-17.36,33.78-15.82,43.21-7.12,1.74-20.13,6.32-29,17.71-7.63,9.78-10.5,22.29-8.52,37.18s8,26,17.88,32.83c11.5,7.95,25.13,7.9,32.39,7.17,2.33,12.21,12.52,42,56.57,49.36a113.49,113.49,0,0,0,18.79,1.65c35.78,0,52.33-19.83,59.07-31.82,6.84,9.37,21.63,22.85,48.55,20.48A55.6,55.6,0,0,0,274.17,361c30.74,18.3,53,8.94,61.66,3.53,5.67,6.14,19.51,17.46,45.26,18.62,1.23.06,2.45.09,3.64.09,25.17,0,39.83-12.11,45.38-17.88,9.74,3.41,28.21,3.47,42.62-4.42,9.47-5.18,20.76-15.72,20.81-36.49C493.57,314,490.2,305.49,483.54,299.21Zm-232,58.66c-33.29,2.76-43.42-21.78-43.89-23a4.48,4.48,0,0,0-4.61-3,4.71,4.71,0,0,0-4.32,3.44c-.49,1.73-12.48,42.18-71.22,32.33-47.65-8-49.35-44-49.4-45.56a4.71,4.71,0,0,0-4.71-4.59,4.81,4.81,0,0,0-1.07.12c-.18.05-17.18,3.89-30-4.95-7.61-5.25-12.28-14.11-13.9-26.33S29,264,35,256.27c10-12.92,27.63-15.16,27.81-15.18a4.73,4.73,0,0,0,4-6c-.3-1-7-24.44,11.28-38a40.22,40.22,0,0,1,38.48-5.51,4.65,4.65,0,0,0,4.4-.3,4.72,4.72,0,0,0,2.23-3.81c.08-2,2.74-49.28,62-49.28,58.92,0,61.08,45.88,61.14,47.83a4.72,4.72,0,0,0,2,3.69,4.67,4.67,0,0,0,4.11.68c.28-.09,28.21-8.36,42.63,10.85,15.31,20.4,3.8,35.83,3.32,36.45a4.68,4.68,0,0,0-.43,5.19,4.8,4.8,0,0,0,4.61,2.42c1.59-.18,39.46-3.64,43.06,28.76,2,18.14-5.3,29-11.8,35-9.81,9-24.47,12.79-38.23,10a4.73,4.73,0,0,0-5.63,4.14C289.77,324.43,286.23,354.87,251.51,357.87Zm216.69-5.16c-13.61,7.45-31.82,6.13-36.81,3a4.71,4.71,0,0,0-6.31,1.18c-.56.75-14,18.27-43.57,16.92s-40.4-17.47-40.82-18.13a4.74,4.74,0,0,0-7.09-1c-.85.74-19.94,16.76-50.87.47,9.9-8.7,14-19.83,15.6-26.13,15.26,1.73,30.91-3.07,41.79-13,11.46-10.47,16.73-25.73,14.81-42.95-3.16-28.42-27.41-36.61-44.95-37.33a38.67,38.67,0,0,0,.41-24.91c3.87-3,14.5-9.42,35.73-9.42,28.42,0,43.45,26.35,44.94,33.42a4.72,4.72,0,0,0,6.75,3.23c.82-.41,20.58-10.07,39.94,7.24s7.18,44.42,6.66,45.57a4.71,4.71,0,0,0,4.56,6.66c.19,0,18-.92,28.13,8.64,4.74,4.49,7,10.49,7,18.36C484.08,337.44,478.73,347,468.2,352.71Z"/></svg>